<svg width="47" height="46" viewBox="0 0 47 46" fill="none" xmlns="http://www.w3.org/2000/svg">
<path d="M23.5 46C36.0158 46 46.1618 35.7025 46.1618 23C46.1618 10.2975 36.0158 0 23.5 0C10.9843 0 0.838257 10.2975 0.838257 23C0.838257 35.7025 10.9843 46 23.5 46Z" fill="url(#paint0_linear_2969_3806)"/>
<path d="M23.4789 46C17.8609 45.9947 12.4451 43.8716 8.28223 40.0427C4.11936 36.2137 1.5062 30.952 0.949744 25.2781C0.393288 19.6043 1.9332 13.9229 5.27073 9.3363C8.60826 4.74966 13.5055 1.58475 19.0122 0.455576C24.519 -0.673597 30.2427 0.313478 35.0729 3.2253C39.9031 6.13712 43.4955 10.7661 45.153 16.2141C46.8105 21.6622 46.4151 27.5409 44.0433 32.7098C41.6716 37.8786 37.4927 41.9691 32.3174 44.1876C29.5214 45.3892 26.5152 46.0057 23.4789 46V46ZM23.4789 0.027208C17.9013 0.0356937 12.5256 2.14635 8.39452 5.94978C4.26342 9.75322 1.6714 14.9783 1.12123 20.6116C0.571062 26.2448 2.10196 31.8847 5.41698 36.4372C8.732 40.9897 13.5948 44.1304 19.0623 45.25C24.5297 46.3697 30.212 45.3885 35.007 42.4967C39.8019 39.605 43.3678 35.0088 45.0129 29.5998C46.6579 24.1908 46.265 18.3544 43.9102 13.2228C41.5554 8.09116 37.4067 4.03006 32.2687 1.8272C29.4879 0.633405 26.4983 0.0211964 23.4789 0.027208V0.027208Z" fill="white"/>
<path d="M12.8206 16.2353C15.0094 16.2353 16.052 17.1631 16.3971 17.5203L14.9925 19.1626C14.7003 18.8237 14.3379 18.5565 13.9319 18.3804C13.526 18.2044 13.0869 18.1241 12.6468 18.1455C10.8248 18.1455 9.816 19.5372 9.816 22.6109C9.816 25.501 10.8248 27.1433 12.8375 27.1433C13.2582 27.1641 13.6783 27.0903 14.0684 26.9271C14.4585 26.7638 14.8093 26.5151 15.0963 26.1981L16.303 27.7858C15.7648 28.3936 14.6016 29.0882 12.6396 29.0882C9.04616 29.0882 7.60301 26.5554 7.60301 22.7697C7.59335 18.7707 9.37437 16.2353 12.8206 16.2353Z" fill="#FCFAFA"/>
<path d="M27.2206 17.5436L25.79 19.1295C25.4763 18.8129 25.0996 18.5654 24.6843 18.4028C24.2689 18.2402 23.824 18.1661 23.3782 18.1854C21.662 18.1854 20.0351 19.1295 20.0351 22.5168C20.0351 25.8521 21.1602 27.2422 23.3956 27.2422C23.934 27.2592 24.4699 27.1621 24.9678 26.9572V22.5168H27.2032V27.9831C26.3289 28.6075 25.1119 29.0882 22.9336 29.0882C19.5011 29.0882 17.75 26.9498 17.75 22.7423C17.75 18.23 20.2884 16.2353 23.4875 16.2353C25.79 16.2427 26.8629 17.1521 27.2206 17.5436Z" fill="#FCFAFA"/>
<path d="M32.1737 29.0882H29.9265V16.2353H32.1737V29.0882ZM36.3959 16.2353H39.0001L34.8678 22.5611L39.3971 29.0882H36.5756L32.4084 22.6528V22.5789L36.3959 16.2353Z" fill="#FCFAFA"/>
<path d="M23.4726 43.9706C18.1905 43.9639 13.099 42.0267 9.18606 38.5347C5.27308 35.0428 2.81746 30.245 2.29552 25.0721C1.77359 19.8992 3.22256 14.7199 6.36137 10.5388C9.50017 6.3578 14.1051 3.47308 19.2828 2.44427C24.4605 1.41545 29.8419 2.31587 34.3832 4.97086C38.9245 7.62586 42.302 11.8462 43.8604 16.8131C45.4187 21.7801 45.047 27.1397 42.8173 31.8522C40.5875 36.5647 36.6587 40.2942 31.793 42.3173C29.1608 43.4135 26.3309 43.9758 23.4726 43.9706V43.9706ZM23.4726 3.18527C18.5102 3.18989 13.7263 5.00834 10.0492 8.28783C6.37209 11.5673 4.06382 16.0741 3.5722 20.9337C3.08058 25.7934 4.44066 30.6596 7.38859 34.5882C10.3365 38.5168 14.6621 41.2277 19.5263 42.1951C24.3904 43.1625 29.4463 42.3174 33.7131 39.8237C37.9798 37.33 41.1533 33.3655 42.6179 28.6994C44.0824 24.0332 43.7336 18.998 41.6391 14.5706C39.5446 10.1432 35.8538 6.63929 31.2826 4.73855C28.8122 3.70817 26.1557 3.17983 23.4726 3.18527V3.18527Z" fill="white"/>
<path d="M31.4587 10.8235H14.8649C14.73 10.8177 14.6036 10.7795 14.5113 10.7167C14.419 10.6539 14.3677 10.5712 14.3677 10.4853C14.3677 10.3994 14.419 10.3166 14.5113 10.2538C14.6036 10.1911 14.73 10.1529 14.8649 10.1471H31.4587C31.5936 10.1529 31.72 10.1911 31.8123 10.2538C31.9046 10.3166 31.9559 10.3994 31.9559 10.4853C31.9559 10.5712 31.9046 10.6539 31.8123 10.7167C31.72 10.7795 31.5936 10.8177 31.4587 10.8235V10.8235Z" fill="white"/>
<path d="M31.4587 35.1765H14.8649C14.73 35.1706 14.6036 35.1325 14.5113 35.0697C14.419 35.0069 14.3677 34.9242 14.3677 34.8382C14.3677 34.7523 14.419 34.6696 14.5113 34.6068C14.6036 34.544 14.73 34.5058 14.8649 34.5H31.4587C31.5936 34.5058 31.72 34.544 31.8123 34.6068C31.9046 34.6696 31.9559 34.7523 31.9559 34.8382C31.9559 34.9242 31.9046 35.0069 31.8123 35.0697C31.72 35.1325 31.5936 35.1706 31.4587 35.1765V35.1765Z" fill="white"/>
<defs>
<linearGradient id="paint0_linear_2969_3806" x1="12.858" y1="-0.684318" x2="32.746" y2="42.2868" gradientUnits="userSpaceOnUse">
<stop offset="0.27" stop-color="#92C01F"/>
<stop offset="1" stop-color="#39A935"/>
</linearGradient>
</defs>
</svg>
