<svg
      viewBox="0 0 176 176"
      version="1.1"
      class="h-20 text-[#232323] hidden xl:block animate-bounce"
    >
      <path
        id="path4"
        fill="currentColor"
        stroke="currentColor"
        inkscape:connector-curvature="0"
        d="m85 0c-21.2 0.8-40.4 9-55.2 22h27.2l28-14.4v-7.6zm6 0v7.6l28 14.4h27.2c-14.8-13-34-21.2-55.2-22zm-67.4 28c-9 9.6-15.8 21.2-19.8 34.2l15 26 25.4-4.2 19.6-34-8.4-22h-31.8zm97 0-8.4 22 21.2 36.6 22.6 3.6 16.2-28c-4-13-10.8-24.6-19.8-34.2h-31.8zm-49.8 25.6-20 34.8 18.4 31.6h37.6l18.4-31.6-20-34.8h-34.4zm-69 17c-1.2 5.6-1.8 11.4-1.8 17.4 0 15 3.8 29 10.4 41.4l7.6-4.6-1.4-28.2-14.8-26zm172.4 0-16 28-1.2 25.6 8.6 5.2c6.6-12.4 10.4-26.4 10.4-41.4 0-6-0.6-11.8-1.8-17.4zm-107.6 57.4l-14.4 17.8 16 28c6.4 1.4 13 2.2 19.8 2.2s13.4-0.8 19.8-2.2l14.8-26-16-19.8h-40zm-44.6 1.6-8.6 5c10.6 17 27 30.2 46.6 36.8l-16.2-28-21.8-13.8zm133 0.6-24 15.2-15 26c19.6-6.6 36-19.8 46.6-36.8l-7.6-4.4z"
      />
    </svg>
