<svg version="1.0" xmlns="http://www.w3.org/2000/svg"
 width="512.000000pt" height="512.000000pt" viewBox="0 0 512.000000 512.000000"
 preserveAspectRatio="xMidYMid meet">

<g transform="translate(0.000000,512.000000) scale(0.100000,-0.100000)"
fill="#6B21A8" stroke="none">
<path d="M397 5104 c-97 -23 -167 -63 -242 -139 -77 -77 -116 -145 -140 -247
-22 -95 -22 -4221 0 -4316 24 -102 63 -170 140 -247 77 -77 145 -116 247 -140
95 -22 4221 -22 4316 0 102 24 170 63 247 140 77 77 116 145 140 247 22 95 22
4221 0 4316 -24 102 -63 170 -140 247 -77 77 -145 116 -247 140 -92 22 -4231
21 -4321 -1z m3243 -921 c-1 -16 -29 -206 -63 -423 l-62 -395 -488 -3 -487 -2
0 -220 0 -220 450 0 450 0 0 -395 0 -395 -450 0 -450 0 0 -610 0 -610 -530 0
-530 0 0 1650 0 1650 1080 0 1080 0 0 -27z"/>
</g>
</svg>
