<?xml version="1.0" standalone="no"?>
<!DOCTYPE svg PUBLIC "-//W3C//DTD SVG 20010904//EN"
 "http://www.w3.org/TR/2001/REC-SVG-20010904/DTD/svg10.dtd">
<svg version="1.0" xmlns="http://www.w3.org/2000/svg"
 width="650.000000pt" height="650.000000pt" viewBox="0 0 650.000000 650.000000"
 preserveAspectRatio="xMidYMid meet">
<metadata>
Created by potrace 1.14, written by Peter Selinger 2001-2017
</metadata>
<g transform="translate(0.000000,650.000000) scale(0.100000,-0.100000)"
fill="#000000" stroke="none">
<path d="M1260 6280 c-224 -5 -298 -10 -344 -23 -309 -90 -548 -310 -648 -597
-52 -150 -49 -52 -55 -1960 -3 -976 -2 -2150 2 -2608 l7 -832 2587 0 c2482 0
2590 1 2676 19 179 37 326 113 454 236 46 44 103 107 127 141 57 79 118 209
146 309 l23 80 3 2616 2 2616 -632 6 c-751 8 -3941 6 -4348 -3z m3138 -1790
c245 -31 496 -157 622 -313 95 -118 147 -247 157 -389 l6 -88 -300 0 -300 0
-7 38 c-13 79 -83 149 -179 177 -74 22 -220 20 -298 -5 -128 -40 -199 -120
-199 -222 0 -70 24 -116 81 -154 61 -41 140 -60 352 -84 417 -47 610 -113 752
-255 114 -114 161 -233 172 -430 9 -180 -24 -310 -113 -446 -280 -425 -1080
-528 -1563 -200 -68 47 -150 126 -193 189 -73 106 -128 272 -128 387 l0 45
304 0 304 0 7 -32 c25 -115 157 -193 350 -205 212 -13 382 58 414 173 5 20 8
41 6 47 -2 7 -6 24 -9 39 -8 37 -51 85 -98 109 -57 29 -195 57 -323 64 -516
32 -803 204 -892 535 -14 50 -18 103 -18 235 1 158 3 176 28 252 35 104 107
213 196 295 203 188 538 279 869 238z m-1450 -312 l-3 -283 -447 -3 -448 -2 0
-270 0 -270 395 0 395 0 0 -285 0 -285 -395 0 -395 0 0 -400 0 -400 -325 0
-325 0 0 1240 0 1240 775 0 775 0 -2 -282z"/>
</g>
</svg>
